HIERARCHY
ROOT hip
{
	OFFSET 0.000000 0.000000 0.000000 
	CHANNELS 6 Xposition Yposition Zposition Xrotation Zrotation Yrotation
	JOINT abdomen
	{
		OFFSET 0.000000 3.402643 0.000000 
		CHANNELS 3 Xrotation Zrotation Yrotation
		JOINT chest
		{
			OFFSET 0.000000 8.438565 -0.680529 
			CHANNELS 3 Xrotation Zrotation Yrotation
			JOINT neck
			{
				OFFSET 0.000000 10.207942 -0.272212 
				CHANNELS 3 Xrotation Zrotation Yrotation
				JOINT head
				{
					OFFSET 0.000000 3.130431 0.000000 
					CHANNELS 3 Xrotation Zrotation Yrotation
					End Site
					{
						OFFSET 0.000000 3.130435 0.000000 
					}
				}
			}
			JOINT lCollar
			{
				OFFSET 3.470700 6.669187 -0.816635 
				CHANNELS 3 Yrotation Zrotation Xrotation
				JOINT lShldr
				{
					OFFSET 3.198488 0.000000 0.000000 
					CHANNELS 3 Zrotation Yrotation Xrotation
					JOINT lForeArm
					{
						OFFSET 10.139888 0.000000 0.000000 
						CHANNELS 3 Yrotation Zrotation Xrotation
						JOINT lHand
						{
							OFFSET 8.370511 0.000000 0.000000 
							CHANNELS 3 Zrotation Yrotation Xrotation
							End Site
							{
								OFFSET 4.083176 0.000000 0.000000 
							}
						}
					}
				}
			}
			JOINT rCollar
			{
				OFFSET -3.470700 6.669187 -0.816635 
				CHANNELS 3 Yrotation Zrotation Xrotation
				JOINT rShldr
				{
					OFFSET -3.198488 0.000000 0.000000 
					CHANNELS 3 Zrotation Yrotation Xrotation
					JOINT rForeArm
					{
						OFFSET -10.139888 0.000000 0.000000 
						CHANNELS 3 Yrotation Zrotation Xrotation
						JOINT rHand
						{
							OFFSET -8.370511 0.000000 0.000000 
							CHANNELS 3 Zrotation Yrotation Xrotation
							End Site
							{
								OFFSET -4.083176 0.000000 0.000000 
							}
						}
					}
				}
			}
		}
	}
	JOINT lThigh
	{
		OFFSET 5.308129 -1.633274 1.361059 
		CHANNELS 3 Xrotation Zrotation Yrotation
		JOINT lShin
		{
			OFFSET -2.041588 -20.007561 0.000000 
			CHANNELS 3 Xrotation Zrotation Yrotation
			JOINT lFoot
			{
				OFFSET 0.000000 -19.190928 -1.224953 
				CHANNELS 3 Xrotation Yrotation Zrotation
				End Site
				{
					OFFSET 0.000000 -2.449906 4.627600 
				}
			}
		}
	}
	JOINT rThigh
	{
		OFFSET -5.308129 -1.633274 1.361059 
		CHANNELS 3 Xrotation Zrotation Yrotation
		JOINT rShin
		{
			OFFSET 2.041588 -20.007561 0.000000 
			CHANNELS 3 Xrotation Zrotation Yrotation
			JOINT rFoot
			{
				OFFSET 0.000000 -19.190928 -1.224953 
				CHANNELS 3 Xrotation Yrotation Zrotation
				End Site
				{
					OFFSET 0.000000 -2.449906 4.627600 
				}
			}
		}
	}
}
MOTION
Frames: 6
Frame Time: 0.033333
0.000000 29.042158 0.000000 3.339844 4.921875 123.936394 35.146484 -1.123047 1.123047 -13.847656 -2.285156 -1.201561 51.015625 8.115234 2.481848 -78.291016 -3.544922 -4.511719 13.388672 -4.814454 8.730469 -89.970703 12.880860 -45.085712 -70.273438 -0.830078 -2.705078 21.806641 54.091801 18.757912 -9.609375 6.289063 10.566405 75.634766 -21.455078 -31.464840 76.923828 0.234375 -2.978555 -14.267578 -62.216793 23.702299 -70.208916 17.672928 11.182754 62.810966 -3.081526 -4.444402 15.531061 14.796299 -0.906978 -70.730347 -19.306335 -3.020306 60.723660 2.109394 3.711190 19.637104 -7.630129 9.815924 
0.000000 29.055927 0.000000 3.339844 4.746094 123.916008 34.970703 -1.347656 1.230469 -13.847656 -2.285156 -1.201561 51.015625 8.115234 2.481848 -79.492188 -3.212891 -3.018126 13.310547 -4.628906 8.858209 -90.449219 12.470703 -44.480316 -70.097656 -0.839844 -2.519537 22.636719 54.218754 19.226673 -9.697266 6.640625 10.439453 75.498047 -21.113281 -33.519138 76.748047 0.234375 -2.978556 -8.769531 -63.076176 19.522543 -70.577080 17.515102 11.419582 62.641441 -2.739695 -4.559138 16.040302 14.780470 -1.131800 -70.914505 -19.315390 -3.006156 60.548786 2.099653 3.673446 19.916386 -7.437257 10.226105 
0.000000 29.078959 0.000000 3.164063 4.570313 123.760544 34.794922 -1.464844 1.562250 -13.847656 -2.285156 -1.025780 51.015625 8.115234 2.481848 -82.041016 -2.343750 1.357022 13.134765 -4.628906 8.857422 -90.146484 12.695313 -43.777153 -70.097656 -0.839844 -2.695319 22.753906 54.355469 19.824217 -9.697266 6.816407 10.448059 75.498047 -20.517578 -36.302246 77.099609 0.224609 -2.988281 -1.308594 -63.769535 13.750000 -70.750252 17.519012 11.548314 62.648518 -2.738537 -4.366175 15.740829 14.543174 -0.970552 -71.076187 -19.304478 -3.308522 60.558220 2.098288 3.683053 19.984142 -7.810212 9.990802 
0.000000 29.140980 0.000000 2.978516 4.218750 123.574936 34.628906 -1.582031 1.884766 -14.023438 -2.285156 -1.016014 51.015625 8.115234 2.481848 -85.029297 -0.869141 7.167968 12.958984 -4.453125 8.848414 -90.273438 12.578125 -43.406078 -70.097656 -0.839844 -2.695319 22.929688 54.501957 20.154436 -10.048829 6.992187 10.458986 75.292969 -19.394531 -38.691406 78.505859 0.175781 -2.998075 2.236328 -62.666016 10.098747 -70.944603 17.528118 11.376610 62.447853 -2.894840 -4.478506 15.914682 14.940722 -1.078979 -71.333893 -19.168951 -2.728014 60.375046 2.275375 3.603677 20.149912 -7.757999 9.819457 
0.000000 29.209949 0.000000 2.812500 4.042969 123.584679 34.628906 -1.699219 2.216797 -14.023438 -2.460938 -0.850029 51.015625 8.115234 2.481848 -87.763672 1.113281 13.652534 12.861328 -4.462891 8.711698 -90.292969 12.519532 -42.304684 -69.921875 -0.839844 -3.046882 24.423828 54.365231 21.650393 -10.576171 6.816406 10.448060 76.142578 -17.822266 -41.116272 82.197266 0.039063 -3.046875 -0.966797 -59.013668 8.458426 -71.182266 17.388023 10.972733 62.285984 -3.325737 -4.540246 16.135588 14.834548 -1.489212 -71.475586 -19.313749 -2.923170 60.209011 2.275315 3.591062 20.439394 -7.578054 10.391920 
0.000000 29.309582 0.000000 2.636719 3.857392 123.750450 34.453125 -1.816406 2.548828 -14.023438 -2.460938 -0.674247 51.015625 8.115234 2.481848 -89.550781 3.496094 20.098253 12.509765 -4.462891 8.710938 -90.087891 12.187500 -41.933594 -69.570313 -0.859375 -2.685400 24.111330 54.384766 21.502081 -11.191406 6.289063 10.566406 76.855469 -15.683591 -43.466793 86.601563 0.214844 -3.251951 -7.314453 -53.564453 8.048783 -71.364799 17.215611 11.390158 62.278969 -2.807997 -4.549345 15.978473 14.916590 -1.252700 -71.475586 -19.313753 -2.923168 59.867023 2.265707 3.569587 20.235735 -7.587774 10.217965 
